<svg xmlns="http://www.w3.org/2000/svg" width="1600" height="900" viewBox="0 0 1600 900">
<defs><radialGradient id="bg"><stop stop-color="#18232b"/><stop offset=".55" stop-color="#0b1116"/><stop offset="1" stop-color="#05080b"/></radialGradient><radialGradient id="orb"><stop stop-color="#b9dff5"/><stop offset=".28" stop-color="#468fc2"/><stop offset=".65" stop-color="#172b3a" stop-opacity=".45"/><stop offset="1" stop-color="#06090c" stop-opacity="0"/></radialGradient></defs>
<rect width="1600" height="900" fill="url(#bg)"/>
<rect x="0" y="0" width="1600" height="78" fill="#080d11"/><text x="56" y="50" fill="#f4f6f7" font-family="Arial" font-size="28" font-weight="700">ATOM <tspan fill="#5aa6d7">AI</tspan></text>
<g fill="#b8c0c5" font-family="Arial" font-size="15"><text x="390" y="48">Ohjaamo</text><text x="510" y="48">Agentit</text><text x="610" y="48">Työkalut</text><text x="730" y="48">Integraatiot</text><text x="870" y="48">Raportit</text><text x="970" y="48">Asetukset</text></g>
<rect x="18" y="100" width="220" height="750" rx="16" fill="#0b1116" stroke="#26343e"/>
<g font-family="Arial" font-size="16" fill="#d7dde0"><text x="48" y="155">⌂  Ohjaamo</text><text x="48" y="220">◌  Chat</text><text x="48" y="285">◇  Agentit</text><text x="48" y="350">⚙  Työkalut</text><text x="48" y="415">⌁  Integraatiot</text><text x="48" y="480">▤  Raportit</text></g>
<circle cx="850" cy="350" r="230" fill="url(#orb)"/><circle cx="850" cy="350" r="180" fill="none" stroke="#83b9da" stroke-width="3" opacity=".65"/><text x="785" y="355" fill="#eef4f7" font-family="Arial" font-size="72" font-weight="700">A</text><text x="748" y="420" fill="#f1f3f4" font-family="Arial" font-size="34" font-weight="700">ATOM <tspan fill="#6ba8cd">AI</tspan></text>
<text x="1210" y="180" fill="#e6e9ea" font-family="Arial" font-size="24">Yksi ohjaamo.</text><text x="1210" y="215" fill="#aeb8bd" font-family="Arial" font-size="20">Rajattomat mahdollisuudet.</text>
<rect x="450" y="610" width="800" height="76" rx="18" fill="#0c1319" stroke="#50616b" stroke-width="2"/><text x="505" y="657" fill="#8e9aa1" font-family="Arial" font-size="18">Mitä haluat saada aikaan tänään?</text><rect x="1165" y="622" width="70" height="52" rx="13" fill="#267fb7"/><text x="1190" y="657" fill="white" font-family="Arial" font-size="25">→</text>
<g font-family="Arial" font-size="17" font-weight="700"><rect x="455" y="720" width="180" height="62" rx="12" fill="#243039" stroke="#64727b"/><text x="490" y="758" fill="#fff">Analysoi dataa</text><rect x="650" y="720" width="180" height="62" rx="12" fill="#3b3025" stroke="#8c765d"/><text x="690" y="758" fill="#fff">Luo raportti</text><rect x="845" y="720" width="180" height="62" rx="12" fill="#173040" stroke="#547c96"/><text x="885" y="758" fill="#fff">Selaa verkkoa</text><rect x="1040" y="720" width="180" height="62" rx="12" fill="#302a25" stroke="#786c60"/><text x="1090" y="758" fill="#fff">Toimi</text></g>
<rect x="1300" y="112" width="245" height="64" rx="14" fill="#0b1116" stroke="#38464f"/><circle cx="1332" cy="144" r="9" fill="#48c98c"/><text x="1355" y="151" fill="#e6ecef" font-family="Arial" font-size="16">LIVE v2.7</text>
</svg>